HIERARCHY
ROOT mixamorig:Hips
{
	OFFSET 0.000000 103.991501 0.000000
	CHANNELS 6 Xposition Yposition Zposition Xrotation Yrotation Zrotation
	JOINT mixamorig:Spine
	{
		OFFSET 0.000000 10.181602 0.131500
		CHANNELS 6 Xposition Yposition Zposition Xrotation Yrotation Zrotation
		JOINT mixamorig:Spine1
		{
			OFFSET 0.000000 10.083504 -1.000800
			CHANNELS 6 Xposition Yposition Zposition Xrotation Yrotation Zrotation
			JOINT mixamorig:Spine2
			{
				OFFSET 0.000000 9.100006 -1.373400
				CHANNELS 6 Xposition Yposition Zposition Xrotation Yrotation Zrotation
				JOINT mixamorig:Neck
				{
					OFFSET 0.000000 16.671707 -2.516200
					CHANNELS 6 Xposition Yposition Zposition Xrotation Yrotation Zrotation
					JOINT mixamorig:Head
					{
						OFFSET 0.000000 9.617905 1.685000
						CHANNELS 6 Xposition Yposition Zposition Xrotation Yrotation Zrotation
						JOINT mixamorig:HeadTop_End
						{
							OFFSET 0.000000 17.815201 2.585000
							CHANNELS 6 Xposition Yposition Zposition Xrotation Yrotation Zrotation
							End Site
							{
								OFFSET 0.000000 13.794495 0.000000
							}
						}
						JOINT mixamorig:LeftEye
						{
							OFFSET 3.067600 6.409500 9.283600
							CHANNELS 6 Xposition Yposition Zposition Xrotation Yrotation Zrotation
							End Site
							{
								OFFSET 0.000000 13.794495 0.000000
							}
						}
						JOINT mixamorig:RightEye
						{
							OFFSET -3.067600 6.409500 9.283500
							CHANNELS 6 Xposition Yposition Zposition Xrotation Yrotation Zrotation
							End Site
							{
								OFFSET 0.000000 13.794495 0.000000
							}
						}
					}
				}
				JOINT mixamorig:LeftShoulder
				{
					OFFSET 4.570400 10.945999 -2.628000
					CHANNELS 6 Xposition Yposition Zposition Xrotation Yrotation Zrotation
					JOINT mixamorig:LeftArm
					{
						OFFSET 10.592400 -0.524597 -2.232100
						CHANNELS 6 Xposition Yposition Zposition Xrotation Yrotation Zrotation
						JOINT mixamorig:LeftForeArm
						{
							OFFSET 27.841499 0.000000 0.000000
							CHANNELS 6 Xposition Yposition Zposition Xrotation Yrotation Zrotation
							JOINT mixamorig:LeftHand
							{
								OFFSET 28.328800 0.000000 0.000000
								CHANNELS 6 Xposition Yposition Zposition Xrotation Yrotation Zrotation
								JOINT mixamorig:LeftHandThumb1
								{
									OFFSET 2.466103 -1.576218 2.681689
									CHANNELS 6 Xposition Yposition Zposition Xrotation Yrotation Zrotation
									JOINT mixamorig:LeftHandThumb2
									{
										OFFSET 3.229782 -1.864716 1.864716
										CHANNELS 6 Xposition Yposition Zposition Xrotation Yrotation Zrotation
										JOINT mixamorig:LeftHandThumb3
										{
											OFFSET 2.652611 -1.531494 1.531488
											CHANNELS 6 Xposition Yposition Zposition Xrotation Yrotation Zrotation
											JOINT mixamorig:LeftHandThumb4
											{
												OFFSET 1.954605 -1.128494 1.128493
												CHANNELS 6 Xposition Yposition Zposition Xrotation Yrotation Zrotation
												End Site
												{
													OFFSET -0.000404 2.523392 0.000683
												}
											}
										}
									}
								}
								JOINT mixamorig:LeftHandIndex1
								{
									OFFSET 9.109299 -0.518112 2.259867
									CHANNELS 6 Xposition Yposition Zposition Xrotation Yrotation Zrotation
									JOINT mixamorig:LeftHandIndex2
									{
										OFFSET 3.676399 0.000000 0.000000
										CHANNELS 6 Xposition Yposition Zposition Xrotation Yrotation Zrotation
										JOINT mixamorig:LeftHandIndex3
										{
											OFFSET 2.883102 0.000000 0.000000
											CHANNELS 6 Xposition Yposition Zposition Xrotation Yrotation Zrotation
											JOINT mixamorig:LeftHandIndex4
											{
												OFFSET 2.392700 0.000000 0.000000
												CHANNELS 6 Xposition Yposition Zposition Xrotation Yrotation Zrotation
												End Site
												{
													OFFSET 0.000000 2.392700 0.001080
												}
											}
										}
									}
								}
								JOINT mixamorig:LeftHandMiddle1
								{
									OFFSET 9.533401 0.000000 0.000000
									CHANNELS 6 Xposition Yposition Zposition Xrotation Yrotation Zrotation
									JOINT mixamorig:LeftHandMiddle2
									{
										OFFSET 3.698196 0.000000 0.000000
										CHANNELS 6 Xposition Yposition Zposition Xrotation Yrotation Zrotation
										JOINT mixamorig:LeftHandMiddle3
										{
											OFFSET 2.950897 0.000000 0.000000
											CHANNELS 6 Xposition Yposition Zposition Xrotation Yrotation Zrotation
											JOINT mixamorig:LeftHandMiddle4
											{
												OFFSET 2.833900 0.000000 0.000000
												CHANNELS 6 Xposition Yposition Zposition Xrotation Yrotation Zrotation
												End Site
												{
													OFFSET 0.000000 2.833893 0.001278
												}
											}
										}
									}
								}
								JOINT mixamorig:LeftHandRing1
								{
									OFFSET 9.104500 -0.043060 -1.865119
									CHANNELS 6 Xposition Yposition Zposition Xrotation Yrotation Zrotation
									JOINT mixamorig:LeftHandRing2
									{
										OFFSET 3.153999 0.000000 0.000000
										CHANNELS 6 Xposition Yposition Zposition Xrotation Yrotation Zrotation
										JOINT mixamorig:LeftHandRing3
										{
											OFFSET 2.937698 0.000000 0.000000
											CHANNELS 6 Xposition Yposition Zposition Xrotation Yrotation Zrotation
											JOINT mixamorig:LeftHandRing4
											{
												OFFSET 2.647499 0.000000 0.000000
												CHANNELS 6 Xposition Yposition Zposition Xrotation Yrotation Zrotation
												End Site
												{
													OFFSET 0.000000 2.647507 0.001195
												}
											}
										}
									}
								}
								JOINT mixamorig:LeftHandPinky1
								{
									OFFSET 8.077797 -0.486984 -3.806321
									CHANNELS 6 Xposition Yposition Zposition Xrotation Yrotation Zrotation
									JOINT mixamorig:LeftHandPinky2
									{
										OFFSET 3.599998 0.000000 0.000000
										CHANNELS 6 Xposition Yposition Zposition Xrotation Yrotation Zrotation
										JOINT mixamorig:LeftHandPinky3
										{
											OFFSET 2.114197 0.000000 0.000000
											CHANNELS 6 Xposition Yposition Zposition Xrotation Yrotation Zrotation
											JOINT mixamorig:LeftHandPinky4
											{
												OFFSET 1.975700 0.000000 0.000000
												CHANNELS 6 Xposition Yposition Zposition Xrotation Yrotation Zrotation
												End Site
												{
													OFFSET 0.000000 1.975693 0.000892
												}
											}
										}
									}
								}
							}
						}
					}
				}
				JOINT mixamorig:RightShoulder
				{
					OFFSET -4.570000 10.946198 -2.628000
					CHANNELS 6 Xposition Yposition Zposition Xrotation Yrotation Zrotation
					JOINT mixamorig:RightArm
					{
						OFFSET -10.592800 -0.524796 -2.232100
						CHANNELS 6 Xposition Yposition Zposition Xrotation Yrotation Zrotation
						JOINT mixamorig:RightForeArm
						{
							OFFSET -27.841499 0.000000 0.000000
							CHANNELS 6 Xposition Yposition Zposition Xrotation Yrotation Zrotation
							JOINT mixamorig:RightHand
							{
								OFFSET -28.328800 0.000000 0.000000
								CHANNELS 6 Xposition Yposition Zposition Xrotation Yrotation Zrotation
								JOINT mixamorig:RightHandPinky1
								{
									OFFSET -8.076698 -0.486725 -3.806227
									CHANNELS 6 Xposition Yposition Zposition Xrotation Yrotation Zrotation
									JOINT mixamorig:RightHandPinky2
									{
										OFFSET -3.599998 0.000000 0.000000
										CHANNELS 6 Xposition Yposition Zposition Xrotation Yrotation Zrotation
										JOINT mixamorig:RightHandPinky3
										{
											OFFSET -2.114197 0.000000 0.000000
											CHANNELS 6 Xposition Yposition Zposition Xrotation Yrotation Zrotation
											JOINT mixamorig:RightHandPinky4
											{
												OFFSET -1.975700 0.000000 0.000000
												CHANNELS 6 Xposition Yposition Zposition Xrotation Yrotation Zrotation
												End Site
												{
													OFFSET 0.000000 1.975693 0.000919
												}
											}
										}
									}
								}
								JOINT mixamorig:RightHandRing1
								{
									OFFSET -9.103600 -0.043030 -1.865120
									CHANNELS 6 Xposition Yposition Zposition Xrotation Yrotation Zrotation
									JOINT mixamorig:RightHandRing2
									{
										OFFSET -3.153999 0.000000 0.000000
										CHANNELS 6 Xposition Yposition Zposition Xrotation Yrotation Zrotation
										JOINT mixamorig:RightHandRing3
										{
											OFFSET -2.937698 0.000000 0.000000
											CHANNELS 6 Xposition Yposition Zposition Xrotation Yrotation Zrotation
											JOINT mixamorig:RightHandRing4
											{
												OFFSET -2.647499 0.000000 0.000000
												CHANNELS 6 Xposition Yposition Zposition Xrotation Yrotation Zrotation
												End Site
												{
													OFFSET 0.000000 2.647507 0.001231
												}
											}
										}
									}
								}
								JOINT mixamorig:RightHandMiddle1
								{
									OFFSET -9.532501 0.000000 0.000000
									CHANNELS 6 Xposition Yposition Zposition Xrotation Yrotation Zrotation
									JOINT mixamorig:RightHandMiddle2
									{
										OFFSET -3.698196 0.000000 0.000000
										CHANNELS 6 Xposition Yposition Zposition Xrotation Yrotation Zrotation
										JOINT mixamorig:RightHandMiddle3
										{
											OFFSET -2.950897 0.000000 0.000000
											CHANNELS 6 Xposition Yposition Zposition Xrotation Yrotation Zrotation
											JOINT mixamorig:RightHandMiddle4
											{
												OFFSET -2.833900 0.000000 0.000000
												CHANNELS 6 Xposition Yposition Zposition Xrotation Yrotation Zrotation
												End Site
												{
													OFFSET 0.000000 2.833893 0.001318
												}
											}
										}
									}
								}
								JOINT mixamorig:RightHandIndex1
								{
									OFFSET -9.108299 -0.517853 2.259859
									CHANNELS 6 Xposition Yposition Zposition Xrotation Yrotation Zrotation
									JOINT mixamorig:RightHandIndex2
									{
										OFFSET -3.676399 0.000000 0.000000
										CHANNELS 6 Xposition Yposition Zposition Xrotation Yrotation Zrotation
										JOINT mixamorig:RightHandIndex3
										{
											OFFSET -2.883102 0.000000 0.000000
											CHANNELS 6 Xposition Yposition Zposition Xrotation Yrotation Zrotation
											JOINT mixamorig:RightHandIndex4
											{
												OFFSET -2.392700 0.000000 0.000000
												CHANNELS 6 Xposition Yposition Zposition Xrotation Yrotation Zrotation
												End Site
												{
													OFFSET 0.000000 2.392700 0.001113
												}
											}
										}
									}
								}
								JOINT mixamorig:RightHandThumb1
								{
									OFFSET -2.464798 -1.573944 2.681868
									CHANNELS 6 Xposition Yposition Zposition Xrotation Yrotation Zrotation
									JOINT mixamorig:RightHandThumb2
									{
										OFFSET -3.229782 -1.864716 1.864716
										CHANNELS 6 Xposition Yposition Zposition Xrotation Yrotation Zrotation
										JOINT mixamorig:RightHandThumb3
										{
											OFFSET -2.652542 -1.531448 1.531448
											CHANNELS 6 Xposition Yposition Zposition Xrotation Yrotation Zrotation
											JOINT mixamorig:RightHandThumb4
											{
												OFFSET -1.954605 -1.128494 1.128493
												CHANNELS 6 Xposition Yposition Zposition Xrotation Yrotation Zrotation
												End Site
												{
													OFFSET 0.000412 2.523392 0.000704
												}
											}
										}
									}
								}
							}
						}
					}
				}
			}
		}
	}
	JOINT mixamorig:LeftUpLeg
	{
		OFFSET 8.207800 -6.751701 -1.599600
		CHANNELS 6 Xposition Yposition Zposition Xrotation Yrotation Zrotation
		JOINT mixamorig:LeftLeg
		{
			OFFSET 0.000000 -44.370499 0.284600
			CHANNELS 6 Xposition Yposition Zposition Xrotation Yrotation Zrotation
			JOINT mixamorig:LeftFoot
			{
				OFFSET 0.000000 -44.427898 -2.982200
				CHANNELS 6 Xposition Yposition Zposition Xrotation Yrotation Zrotation
				JOINT mixamorig:LeftToeBase
				{
					OFFSET 0.000000 -8.728700 10.710600
					CHANNELS 6 Xposition Yposition Zposition Xrotation Yrotation Zrotation
					JOINT mixamorig:LeftToe_End
					{
						OFFSET 0.000000 -0.000700 9.278099
						CHANNELS 6 Xposition Yposition Zposition Xrotation Yrotation Zrotation
						End Site
						{
							OFFSET 0.000000 9.278100 0.000000
						}
					}
				}
			}
		}
	}
	JOINT mixamorig:RightUpLeg
	{
		OFFSET -8.207800 -6.751701 -1.599600
		CHANNELS 6 Xposition Yposition Zposition Xrotation Yrotation Zrotation
		JOINT mixamorig:RightLeg
		{
			OFFSET 0.000000 -44.370499 0.286200
			CHANNELS 6 Xposition Yposition Zposition Xrotation Yrotation Zrotation
			JOINT mixamorig:RightFoot
			{
				OFFSET 0.000000 -44.427700 -2.983800
				CHANNELS 6 Xposition Yposition Zposition Xrotation Yrotation Zrotation
				JOINT mixamorig:RightToeBase
				{
					OFFSET 0.000000 -8.728700 10.710600
					CHANNELS 6 Xposition Yposition Zposition Xrotation Yrotation Zrotation
					JOINT mixamorig:RightToe_End
					{
						OFFSET 0.000000 -0.000700 9.278100
						CHANNELS 6 Xposition Yposition Zposition Xrotation Yrotation Zrotation
						End Site
						{
							OFFSET 0.000000 9.278100 0.000000
						}
					}
				}
			}
		}
	}
}
MOTION
Frames: 3
Frame Time: 0.016667
0.170038 35.254822 -3.299660 -115.206781 5.481341 3.150930 -0.000001 10.181599 0.131499 53.790895 -8.037806 -1.595286 0.000000 10.083494 -1.000795 14.452303 -2.540453 2.904999 -0.000000 9.100011 -1.373402 14.513780 -1.532697 3.001469 -0.000001 16.671701 -2.516200 8.082112 0.157414 1.364754 0.000000 9.617889 1.684991 28.114146 3.120509 6.425605 0.000001 17.815201 2.585005 0.000000 -0.000000 -0.000001 3.067601 6.409500 9.283607 0.000000 -0.000000 -0.000001 -3.067600 6.409500 9.283505 0.000000 -0.000000 -0.000001 4.570399 10.946003 -2.628000 5.816774 -2.815285 -0.615029 10.592417 -0.524597 -2.232100 36.106340 6.688029 -105.633445 27.841503 -0.000011 0.000009 -0.000004 -34.433197 -0.000015 28.328808 -0.000001 -0.000003 19.018303 20.661799 91.424896 2.466106 -1.576217 2.681687 -12.207861 -9.611551 20.426710 3.229795 -1.864703 1.864717 5.987362 12.646050 1.346591 2.652612 -1.531487 1.531484 -7.335866 -0.421809 13.147328 1.954606 -1.128478 1.128493 -0.000003 0.000001 -0.000000 9.109300 -0.518108 2.259865 0.244423 3.013435 -8.368005 3.676383 -0.000001 -0.000002 0.000003 0.004694 -0.045803 2.883109 0.000001 0.000002 0.000001 -0.002902 0.028308 2.392694 -0.000016 -0.000002 -0.000000 -0.000001 -0.000000 9.533404 0.000012 -0.000002 0.099876 3.029936 -8.213955 3.698196 -0.000019 -0.000001 0.000000 0.000001 -0.000003 2.950902 -0.000010 -0.000001 -0.000000 0.000002 0.000004 2.833900 0.000000 -0.000001 -0.000000 -0.000000 0.000000 9.104497 -0.043074 -1.865124 0.087585 2.910545 -6.976608 3.153994 -0.000013 0.000002 0.000006 0.006807 -0.066402 2.937696 -0.000013 0.000004 0.000000 -0.003986 0.038892 2.647490 -0.000001 0.000002 -0.000001 0.000001 0.000000 8.077784 -0.486973 -3.806324 0.049129 2.752114 -5.304217 3.599994 -0.000017 -0.000002 0.000001 -0.000000 -0.000001 2.114199 -0.000001 0.000000 0.000000 -0.000000 -0.000001 1.975701 0.000000 0.000004 0.000000 -0.000000 -0.000000 -4.570002 10.946193 -2.628002 0.566116 -0.020110 -1.614853 -10.592801 -0.524792 -2.232100 30.312144 -9.214748 94.146255 -27.841496 0.000001 0.000004 -0.000003 41.605930 0.000001 -28.328798 -0.000002 0.000005 40.690251 -35.450464 -75.217431 -8.076694 -0.486728 -3.806226 0.061455 -2.635361 4.341912 -3.600002 -0.000004 -0.000003 0.000001 -0.004024 0.049524 -2.114197 0.000008 -0.000001 0.000002 0.002284 -0.028115 -1.975708 -0.000000 -0.000004 -0.000000 0.000001 0.000000 -9.103598 -0.043052 -1.865122 0.080021 -2.827104 6.707581 -3.153990 -0.000007 -0.000001 0.000001 0.000000 0.000005 -2.937702 -0.000013 -0.000002 0.000000 -0.000001 -0.000001 -2.647483 0.000000 -0.000001 0.000000 -0.000001 -0.000000 -9.532501 0.000014 -0.000001 0.082275 -2.845919 6.940231 -3.698199 0.000006 -0.000002 0.000002 -0.004818 0.059164 -2.950888 -0.000016 0.000001 0.000001 0.002916 -0.035762 -2.833894 -0.000015 -0.000001 0.000000 0.000000 0.000001 -9.108304 -0.517852 2.259858 0.083670 -2.857256 7.080639 -3.676399 0.000001 0.000000 0.000000 -0.000003 -0.000000 -2.883100 -0.000003 0.000001 0.000000 -0.000000 0.000002 -2.392692 0.000001 -0.000000 0.000000 -0.000000 -0.000000 -2.464791 -1.573940 2.681865 -11.630438 11.625073 -20.750861 -3.229788 -1.864681 1.864722 6.358352 -14.447505 -2.112221 -2.652538 -1.531451 1.531445 -5.504748 -5.511012 -14.718528 -1.954607 -1.128509 1.128493 0.000001 0.000000 0.000001 8.207802 -6.751712 -1.599595 -62.499851 3.476245 57.004042 0.000001 -44.370502 0.284600 22.351627 -3.615950 2.961630 0.000001 -44.427898 -2.982199 29.364865 0.053156 -0.809742 -0.000001 -8.728698 10.710595 0.144990 -0.000001 -0.000015 -0.000002 -0.000705 9.278086 -0.000002 0.000001 -0.000000 -8.207800 -6.751710 -1.599599 -48.171630 -3.572434 -48.309822 -0.000000 -44.370495 0.286202 6.921251 -10.003697 -4.967620 0.000008 -44.427692 -2.983802 -7.299281 -17.942314 11.167801 0.000010 -8.728696 10.710602 3.858997 0.000003 -0.000017 -0.000002 -0.000690 9.278100 0.000001 -0.000000 -0.000001 
1.652068 35.210648 -4.052628 -116.161396 -0.783245 4.527620 0.000000 10.181596 0.131495 55.503138 -7.127118 -4.646379 -0.000000 10.083502 -1.000800 14.283009 -1.794565 2.645981 -0.000000 9.100008 -1.373401 14.307660 -0.761595 2.659418 0.000001 16.671713 -2.516202 7.829985 -0.174587 2.052887 0.000000 9.617912 1.685005 26.238011 0.133461 10.581711 -0.000001 17.815201 2.585001 0.000000 0.000000 0.000001 3.067599 6.409500 9.283602 0.000000 0.000000 0.000001 -3.067601 6.409500 9.283502 0.000000 0.000000 0.000001 4.570401 10.946010 -2.627999 5.758590 -5.108023 -1.634740 10.592407 -0.524604 -2.232104 40.556092 13.246012 -109.168662 27.841501 0.000006 0.000003 0.000008 -39.094825 0.000012 28.328808 -0.000004 0.000004 32.022488 21.547532 84.193686 2.466099 -1.576225 2.681692 -27.514145 -8.114054 9.182622 3.229779 -1.864710 1.864716 6.121215 14.183627 1.397769 2.652618 -1.531494 1.531485 -7.999565 -5.384598 12.510373 1.954611 -1.128479 1.128490 -0.000001 -0.000000 -0.000003 9.109285 -0.518107 2.259869 0.089823 2.527496 -8.236377 3.676383 -0.000000 -0.000003 0.001065 0.111857 -1.091645 2.883099 -0.000010 -0.000004 0.001038 0.110342 -1.076767 2.392693 -0.000000 0.000002 -0.000000 0.000000 -0.000000 9.533394 0.000006 0.000001 0.022570 2.492115 -8.212549 3.698202 -0.000006 -0.000001 0.000400 0.068624 -0.669683 2.950905 0.000001 0.000002 0.001408 0.128618 -1.255208 2.833901 -0.000000 0.000002 -0.000000 -0.000001 -0.000000 9.104490 -0.043057 -1.865116 0.021972 2.440639 -7.687722 3.153990 0.000002 -0.000004 0.000048 0.023778 -0.232043 2.937693 -0.000004 0.000002 0.001378 0.127232 -1.241645 2.647499 0.000000 -0.000000 -0.000001 -0.000001 0.000000 8.077779 -0.486983 -3.806319 -0.131331 2.421775 -7.327079 3.600000 -0.000016 0.000000 0.000000 -0.000002 -0.000000 2.114197 0.000005 -0.000002 0.001589 0.136613 -1.333220 1.975702 0.000001 -0.000005 0.000000 -0.000001 -0.000000 -4.570000 10.946204 -2.627998 1.933887 -0.382399 -1.027415 -10.592796 -0.524803 -2.232102 28.857758 -13.011975 93.739517 -27.841503 -0.000002 -0.000000 -0.000001 43.098740 0.000005 -28.328806 0.000001 0.000004 42.980857 -35.602163 -74.851435 -8.076696 -0.486719 -3.806224 0.059291 -2.605662 3.952286 -3.599996 -0.000014 0.000000 0.000587 -0.074070 0.909305 -2.114192 0.000007 0.000001 0.000149 0.037274 -0.457602 -1.975709 -0.000000 -0.000001 -0.000000 0.000000 0.000000 -9.103604 -0.043034 -1.865116 0.077328 -2.803726 6.398210 -3.154007 -0.000007 0.000002 0.000436 -0.063693 0.781920 -2.937696 -0.000001 -0.000006 0.000139 0.035866 -0.440312 -2.647492 -0.000000 0.000001 -0.000000 -0.000000 0.000000 -9.532499 -0.000008 0.000004 0.079727 -2.824595 6.657297 -3.698199 -0.000009 -0.000000 0.000406 -0.061591 0.756067 -2.950890 -0.000009 0.000001 0.000131 0.035038 -0.430123 -2.833893 0.000000 0.000000 -0.000000 0.000001 0.000000 -9.108303 -0.517843 2.259861 0.080870 -2.834134 6.774901 -3.676397 -0.000001 -0.000000 0.000434 -0.063675 0.781681 -2.883101 0.000009 0.000003 0.000152 0.037664 -0.462412 -2.392694 -0.000015 0.000001 -0.000000 0.000000 0.000000 -2.464800 -1.573941 2.681875 -11.678024 11.665833 -20.720844 -3.229785 -1.864691 1.864723 6.400075 -14.649460 -2.133992 -2.652537 -1.531466 1.531450 -5.640702 -5.221451 -14.583451 -1.954607 -1.128507 1.128493 0.000001 0.000001 0.000001 8.207800 -6.751709 -1.599600 -65.104489 0.440747 53.424643 0.000001 -44.370491 0.284601 30.245751 -4.686088 1.360968 -0.000004 -44.427898 -2.982206 20.272386 -1.166113 -2.821925 0.000007 -8.728698 10.710590 -0.565717 -0.000014 0.000006 0.000006 -0.000710 9.278087 0.000001 0.000001 0.000000 -8.207797 -6.751701 -1.599603 -44.697786 -7.860244 -46.111505 -0.000005 -44.370495 0.286200 7.206330 -9.794730 -7.201315 0.000002 -44.427689 -2.983802 -4.194400 -19.535050 11.589507 0.000000 -8.728689 10.710598 -0.323437 -0.000005 -0.000008 -0.000005 -0.000706 9.278102 0.000000 0.000001 -0.000003 
3.139857 35.208588 -5.030724 -116.243563 -6.938619 5.822929 0.000001 10.181601 0.131501 57.125397 -6.306868 -7.053451 0.000001 10.083513 -1.000800 13.977233 -1.042073 2.337572 0.000000 9.100006 -1.373398 13.973035 -0.013524 2.266145 0.000001 16.671715 -2.516197 7.659127 -0.494104 2.569528 -0.000002 9.617905 1.684994 25.215306 -2.702262 13.822622 -0.000002 17.815201 2.585002 0.000000 0.000000 0.000000 3.067598 6.409500 9.283599 0.000000 0.000000 0.000000 -3.067603 6.409500 9.283502 0.000000 0.000000 0.000000 4.570402 10.946002 -2.627998 5.581007 -8.138860 -2.198514 10.592400 -0.524599 -2.232106 42.687941 16.607526 -111.865924 27.841503 0.000008 0.000008 0.000008 -41.127772 0.000013 28.328794 -0.000005 -0.000004 40.478419 20.130362 75.504586 2.466100 -1.576212 2.681696 -33.410755 -6.434628 5.277820 3.229786 -1.864713 1.864712 6.412363 15.744201 1.501594 2.652604 -1.531489 1.531490 -7.915704 -6.529195 12.830836 1.954613 -1.128479 1.128494 0.000001 -0.000000 -0.000000 9.109288 -0.518101 2.259871 0.039526 2.418553 -8.329522 3.676404 -0.000003 -0.000002 0.004329 0.225436 -2.200398 2.883096 -0.000018 -0.000000 0.000097 0.033989 -0.331640 2.392692 -0.000001 -0.000000 -0.000000 0.000000 0.000000 9.533400 0.000022 0.000005 -0.006778 2.290542 -8.244384 3.698196 -0.000002 0.000004 0.002904 0.184674 -1.802371 2.950901 -0.000002 -0.000004 0.000245 0.053462 -0.521686 2.833905 -0.000001 -0.000003 -0.000000 -0.000001 0.000001 9.104499 -0.043076 -1.865113 -0.006152 2.255938 -7.903547 3.153993 0.000001 0.000003 0.001892 0.149009 -1.454277 2.937694 -0.000006 0.000005 0.000032 0.019209 -0.187433 2.647485 -0.000015 -0.000002 -0.000000 0.000002 -0.000000 8.077788 -0.486973 -3.806316 -0.178556 2.278426 -8.018326 3.599997 0.000004 0.000001 0.000953 0.105834 -1.032877 2.114193 0.000022 0.000001 0.000477 0.074746 -0.729405 1.975702 0.000002 0.000006 0.000000 -0.000000 -0.000001 -4.569999 10.946191 -2.628000 3.388889 -1.278123 -0.481258 -10.592800 -0.524797 -2.232107 26.292875 -15.953505 92.759658 -27.841499 0.000003 -0.000001 0.000013 43.482699 -0.000013 -28.328815 -0.000002 0.000002 43.989417 -35.515058 -75.434030 -8.076694 -0.486721 -3.806226 0.058640 -2.596171 3.811740 -3.599997 0.000003 0.000000 0.001201 -0.105905 1.300210 -2.114204 -0.000002 0.000000 0.000422 0.062687 -0.769534 -1.975707 0.000000 -0.000004 0.000000 -0.000001 -0.000000 -9.103589 -0.043041 -1.865121 0.076483 -2.796155 6.284458 -3.154000 -0.000009 -0.000001 0.000889 -0.091093 1.118228 -2.937697 -0.000003 0.000001 0.000373 0.059016 -0.724460 -2.647483 0.000000 0.000001 0.000000 -0.000002 -0.000000 -9.532502 -0.000002 0.000001 0.078804 -2.816670 6.540352 -3.698195 0.000009 0.000001 0.000828 -0.087886 1.078943 -2.950891 -0.000003 0.000001 0.000330 0.055626 -0.682879 -2.833903 -0.000030 -0.000003 0.000000 0.000001 0.000001 -9.108298 -0.517869 2.259859 0.079942 -2.826169 6.656981 -3.676399 0.000009 0.000002 0.000890 -0.091125 1.118638 -2.883106 -0.000010 0.000000 0.000369 0.058729 -0.720900 -2.392694 -0.000014 0.000002 -0.000000 0.000002 0.000000 -2.464794 -1.573956 2.681872 -11.612969 11.699575 -20.742475 -3.229779 -1.864698 1.864716 6.424487 -14.730865 -2.146094 -2.652531 -1.531458 1.531448 -5.694126 -5.120916 -14.548586 -1.954604 -1.128508 1.128492 -0.000002 0.000000 -0.000000 8.207803 -6.751705 -1.599602 -68.485487 -2.771455 48.275326 -0.000006 -44.370499 0.284598 38.605370 -2.763805 0.385662 0.000002 -44.427902 -2.982195 18.803294 -1.528858 -3.257017 0.000004 -8.728702 10.710597 -0.697946 0.000007 -0.000003 0.000002 -0.000710 9.278099 0.000003 -0.000001 -0.000000 -8.207795 -6.751699 -1.599598 -42.541850 -10.628815 -44.573237 -0.000000 -44.370495 0.286200 13.501290 -9.547175 -8.199306 -0.000007 -44.427692 -2.983797 -4.552251 -13.090513 11.734484 -0.000008 -8.728703 10.710601 -5.316216 0.000004 -0.000003 -0.000006 -0.000699 9.278094 0.000000 0.000001 -0.000001 
